<?xml version="1.0" standalone="no"?>
<!DOCTYPE svg PUBLIC "-//W3C//DTD SVG 20010904//EN"
 "http://www.w3.org/TR/2001/REC-SVG-20010904/DTD/svg10.dtd">
<svg version="1.0" xmlns="http://www.w3.org/2000/svg"
 width="271.000000pt" height="186.000000pt" viewBox="0 0 271.000000 186.000000"
 preserveAspectRatio="xMidYMid meet">
<metadata>
Created by potrace 1.16, written by Peter Selinger 2001-2019
</metadata>
<g transform="translate(0.000000,186.000000) scale(0.100000,-0.100000)"
fill="#000000" stroke="none">
<path d="M0 930 l0 -930 819 0 819 0 41 60 c23 33 41 70 41 82 -1 34 -23 58
-48 51 -12 -3 -39 2 -60 10 -27 11 -50 13 -74 8 -19 -5 -47 -6 -64 -4 -113 14
-125 14 -139 3 -13 -11 -14 -10 -9 4 5 12 0 16 -20 16 -15 0 -26 6 -26 14 0
17 -58 79 -89 96 -13 6 -49 12 -79 11 -45 0 -63 5 -89 25 -18 14 -42 26 -53
27 -11 1 -20 7 -20 14 0 7 -11 15 -25 19 -14 3 -22 11 -19 16 4 7 -2 7 -17 2
-38 -13 -118 -11 -124 4 -2 6 -11 12 -19 12 -8 0 -17 6 -19 13 -4 7 -6 6 -6
-4 -1 -9 -8 -20 -17 -23 -12 -4 -14 -1 -9 14 7 23 -5 26 -23 8 -7 -7 -18 -13
-25 -13 -10 0 -29 -29 -40 -59 -2 -6 -14 -2 -27 7 -16 11 -28 13 -41 7 -35
-19 -69 56 -60 128 3 22 -30 52 -56 52 -18 0 -23 4 -19 18 2 9 8 41 11 70 l7
54 -28 -4 -29 -3 -2 97 -1 97 29 -6 c23 -4 28 -2 24 9 -4 9 1 14 15 14 11 0
20 -4 20 -9 0 -5 6 -7 14 -4 17 7 26 -13 26 -56 0 -36 15 -65 27 -54 4 4 6 41
4 81 l-2 73 50 53 c36 38 51 62 51 81 0 15 3 29 7 31 5 2 20 20 35 40 16 20
37 40 48 43 11 3 20 14 20 24 0 19 30 51 47 51 6 0 16 7 23 15 7 8 17 15 23
15 5 0 2 -10 -9 -21 -23 -26 -14 -23 49 16 45 29 59 45 37 45 -5 0 -10 -5 -10
-11 0 -6 -9 -8 -21 -4 -16 5 -19 4 -14 -5 6 -9 4 -11 -4 -5 -8 5 -11 18 -7 37
5 27 4 29 -17 23 -21 -6 -21 -5 -4 9 11 8 36 17 57 21 22 4 44 13 51 21 6 8
18 14 26 14 12 0 11 -7 -6 -36 -12 -19 -21 -36 -21 -37 0 -5 61 1 67 6 3 4 13
1 21 -6 13 -10 15 -8 9 13 -4 14 -7 29 -7 33 0 4 -8 7 -17 5 -14 -2 -18 4 -17
26 2 33 -12 52 -41 57 -11 3 -22 17 -27 38 -9 31 -10 32 -27 17 -22 -20 -45
-21 -38 -2 4 9 -4 18 -23 24 -22 8 -30 7 -34 -4 -3 -9 -10 -12 -16 -9 -5 3 -7
0 -4 -8 3 -8 -2 -19 -10 -26 -8 -7 -13 -18 -10 -26 3 -7 -7 -22 -23 -34 -15
-12 -33 -36 -40 -52 -8 -18 -17 -28 -24 -23 -6 3 -7 9 -3 13 12 8 16 54 4 46
-5 -3 -14 4 -21 17 -11 20 -7 26 36 65 37 34 50 41 61 32 11 -9 15 -8 20 5 3
9 10 13 15 10 5 -3 9 1 9 8 0 7 16 26 35 41 19 15 35 23 35 17 0 -6 6 -8 13
-4 8 5 8 2 -2 -9 -7 -9 -19 -17 -27 -17 -7 0 -16 -5 -19 -11 -4 -6 -1 -9 6 -8
8 1 22 -1 32 -6 25 -11 71 11 63 30 -3 10 1 15 14 15 25 0 34 16 14 24 -8 3
-13 10 -10 15 3 5 -2 12 -11 15 -14 6 -12 10 12 26 40 27 95 27 95 1 0 -11 6
-22 13 -24 10 -4 10 -6 0 -6 -43 -3 18 -71 63 -71 25 0 32 6 43 36 8 21 22 39
37 44 13 5 24 14 24 20 0 5 6 10 13 10 7 0 22 6 32 14 17 12 17 15 3 29 -9 9
-29 19 -44 24 l-29 7 30 7 c17 4 78 7 136 8 119 1 152 -9 244 -73 15 -11 43
-20 61 -20 19 0 34 -3 34 -7 0 -4 9 -5 20 -2 14 4 20 0 20 -11 0 -9 5 -16 10
-16 6 0 10 -6 8 -12 -1 -7 3 -23 10 -35 12 -22 7 -53 -10 -53 -5 0 -6 -4 -3
-10 3 -5 17 -10 30 -10 13 0 37 -11 52 -25 24 -21 26 -26 13 -35 -8 -5 -25
-10 -37 -10 -30 0 -29 -21 2 -50 14 -13 25 -29 25 -35 0 -26 86 -50 106 -30
18 18 18 40 -2 70 -9 14 -14 32 -10 40 3 9 -1 18 -10 22 -13 5 -12 8 5 24 19
18 57 16 46 -1 -3 -5 0 -12 6 -16 8 -4 9 -3 5 4 -9 15 4 15 38 2 17 -6 26 -6
26 0 0 6 -4 10 -9 10 -13 0 -103 41 -99 45 6 7 92 -26 109 -41 18 -17 33 -19
23 -3 -10 17 30 -6 47 -27 12 -16 11 -15 -16 1 -28 17 -29 18 -13 0 9 -10 27
-18 40 -19 15 -1 22 -7 20 -16 -2 -8 0 -12 4 -7 8 8 54 -31 54 -46 0 -5 -7 -7
-15 -3 -13 5 -13 2 1 -19 15 -22 15 -25 1 -25 -9 0 -19 5 -22 11 -4 6 -13 8
-21 5 -18 -7 -44 3 -44 16 0 13 -44 48 -50 39 -3 -3 -17 -14 -32 -23 -14 -10
-28 -28 -30 -40 -2 -16 -11 -24 -28 -26 -23 -3 -25 -8 -27 -53 -2 -32 3 -59
13 -75 14 -21 14 -26 0 -55 -20 -40 -23 -204 -3 -216 24 -16 47 -72 47 -117 0
-25 4 -46 9 -46 5 0 11 -10 15 -22 3 -14 22 -31 47 -43 23 -11 46 -29 51 -40
5 -12 29 -26 59 -36 l51 -16 48 46 c26 25 55 61 64 78 18 37 31 41 40 16 6
-14 9 -15 15 -4 16 25 31 0 31 -52 1 -29 7 -63 15 -77 29 -51 5 -240 -47 -370
-30 -74 -97 -190 -114 -197 -8 -3 -12 -9 -9 -13 3 -4 -18 -28 -45 -54 l-49
-46 264 0 265 0 0 930 0 930 -1355 0 -1355 0 0 -930z m480 -520 c0 -6 6 -10
14 -10 7 0 19 -7 26 -15 18 -22 30 -19 30 8 1 21 2 20 23 -7 12 -17 27 -48 33
-70 9 -34 7 -46 -8 -74 -10 -18 -16 -37 -13 -43 3 -5 -1 -6 -10 -3 -10 4 -14
14 -10 28 2 11 2 15 -1 8 -8 -16 -34 3 -34 25 0 8 -9 28 -20 43 -12 17 -17 35
-13 46 4 11 3 15 -5 10 -12 -7 -63 63 -55 77 5 9 43 -11 43 -23z"/>
</g>
</svg>
